<?xml version="1.0" encoding="utf-8"?>
<!-- Generator: Adobe Illustrator 16.0.1, SVG Export Plug-In . SVG Version: 6.00 Build 0)  -->
<!DOCTYPE svg PUBLIC "-//W3C//DTD SVG 1.1//EN" "http://www.w3.org/Graphics/SVG/1.1/DTD/svg11.dtd">
<svg version="1.1" id="Capa_1" xmlns="http://www.w3.org/2000/svg" xmlns:xlink="http://www.w3.org/1999/xlink" x="0px" y="0px"
	 width="56.689px" height="56.689px" viewBox="0 0 56.689 56.689" enable-background="new 0 0 56.689 56.689" xml:space="preserve">
<g>
	<g>
		<g>
			<path d="M38.974,0H17.715C7.933,0,0,7.933,0,17.716v21.258C0,48.757,7.933,56.69,17.715,56.69h21.258
				c9.783,0,17.716-7.933,17.716-17.716V17.716C56.689,7.933,48.757,0,38.974,0z M51.375,38.974c0,6.839-5.563,12.401-12.401,12.401
				H17.715c-6.838,0-12.401-5.563-12.401-12.401V17.716c0-6.839,5.563-12.401,12.401-12.401h21.258
				c6.839,0,12.401,5.563,12.401,12.401V38.974z"/>
		</g>
	</g>
	<g>
		<g>
			<path fill="#334458" d="M38.974,0H17.715C7.933,0,0,7.933,0,17.716v21.258C0,48.757,7.933,56.69,17.715,56.69h21.258
				c9.783,0,17.716-7.933,17.716-17.716V17.716C56.689,7.933,48.757,0,38.974,0z M51.375,38.974c0,6.839-5.563,12.401-12.401,12.401
				H17.715c-6.838,0-12.401-5.563-12.401-12.401V17.716c0-6.839,5.563-12.401,12.401-12.401h21.258
				c6.839,0,12.401,5.563,12.401,12.401V38.974z"/>
		</g>
	</g>
</g>
<g>
	<g>
		<g>
			<path d="M28.345,14.172c-7.827,0-14.172,6.346-14.172,14.173s6.346,14.173,14.172,14.173c7.826,0,14.172-6.346,14.172-14.173
				S36.171,14.172,28.345,14.172z M28.345,37.202c-4.882,0-8.858-3.975-8.858-8.857c0-4.886,3.976-8.857,8.858-8.857
				c4.883,0,8.857,3.972,8.857,8.857C37.202,33.228,33.228,37.202,28.345,37.202z"/>
		</g>
	</g>
	<g>
		<g>
			<path fill="#334458" d="M28.345,14.172c-7.827,0-14.172,6.346-14.172,14.173s6.346,14.173,14.172,14.173
				c7.826,0,14.172-6.346,14.172-14.173S36.171,14.172,28.345,14.172z M28.345,37.202c-4.882,0-8.858-3.975-8.858-8.857
				c0-4.886,3.976-8.857,8.858-8.857c4.883,0,8.857,3.972,8.857,8.857C37.202,33.228,33.228,37.202,28.345,37.202z"/>
		</g>
	</g>
</g>
<g>
	<g>
		<g>
			<circle cx="43.58" cy="13.11" r="1.889"/>
		</g>
	</g>
	<g>
		<g>
			<circle fill="#334458" cx="43.58" cy="13.11" r="1.889"/>
		</g>
	</g>
</g>
</svg>
