<?xml version="1.0" encoding="utf-8"?>
<!-- Generator: Adobe Illustrator 18.0.0, SVG Export Plug-In . SVG Version: 6.00 Build 0)  -->
<!DOCTYPE svg PUBLIC "-//W3C//DTD SVG 1.1//EN" "http://www.w3.org/Graphics/SVG/1.1/DTD/svg11.dtd">
<svg version="1.1" id="Слой_1" xmlns="http://www.w3.org/2000/svg" xmlns:xlink="http://www.w3.org/1999/xlink" x="0px" y="0px"
	 viewBox="0 183.9 575 481" enable-background="new 0 183.9 575 481" xml:space="preserve">
<rect y="183.9" fill="#344458" width="585" height="481"/>
<g enable-background="new    ">
	<path fill="#29C0D4" d="M241.5,401.3v-6.4h6.2v6.4c6.3,0.3,11.3,2.2,15,5.7s5.5,7.8,5.5,12.9c0,5-1.8,9.3-5.3,12.8
		c-3.5,3.5-8.6,5.5-15.1,5.8v6.4h-6.2v-6.4c-5.9-0.2-10.8-2-14.7-5.4c-3.9-3.4-5.9-7.8-5.9-13.3c0-5.5,1.9-10,5.8-13.3
		C230.7,403.3,235.6,401.5,241.5,401.3z M241.5,407c-4.1,0.2-7.4,1.4-9.9,3.6c-2.5,2.2-3.8,5.4-3.8,9.4c0,4,1.2,7.1,3.7,9.3
		c2.5,2.3,5.8,3.5,10,3.7V407z M247.6,406.9v26c4.2-0.2,7.6-1.4,10-3.7c2.4-2.3,3.7-5.4,3.7-9.3c0-3.9-1.2-7-3.6-9.2
		S252,407.2,247.6,406.9z"/>
</g>
<g enable-background="new    ">
	<path fill="#FFFFFF" d="M270.6,445l19.1-49.7h7.1l20.3,49.7h-7.5l-5.8-15h-20.8l-5.5,15H270.6z M284.9,424.6h16.8l-5.2-13.8
		c-1.6-4.2-2.8-7.6-3.5-10.3c-0.6,3.2-1.5,6.3-2.7,9.5L284.9,424.6z"/>
	<path fill="#FFFFFF" d="M322.7,395.3h32.2v5.9h-25.6v15.3h11.9c4.4,0,7.9,0.4,10.5,1.3c2.6,0.8,4.7,2.4,6.2,4.7
		c1.6,2.3,2.3,5,2.3,8.1c0,2.5-0.6,4.9-1.7,7c-1.1,2.2-2.8,4-5,5.3c-2.2,1.4-6,2.1-11.3,2.1h-19.4V395.3z M329.2,439.4h13.1
		c3.5,0,6.2-0.7,8-2.2c1.8-1.4,2.7-3.6,2.7-6.5c0-2.1-0.5-3.8-1.5-5.1c-1-1.4-2.4-2.3-4.2-2.7c-1.8-0.5-4.9-0.7-9.2-0.7h-8.8V439.4z
		"/>
	<path fill="#FFFFFF" d="M367.9,445v-49.7h18.7c3.3,0,5.8,0.2,7.6,0.5c2.4,0.4,4.5,1.2,6.1,2.3c1.6,1.1,3,2.7,4,4.8
		c1,2.1,1.5,4.3,1.5,6.8c0,4.2-1.3,7.8-4,10.7s-7.5,4.4-14.6,4.4h-12.7V445H367.9z M374.4,418.9h12.8c4.2,0,7.3-0.8,9-2.4
		c1.8-1.6,2.7-3.8,2.7-6.7c0-2.1-0.5-3.9-1.6-5.3c-1-1.5-2.4-2.5-4.1-2.9c-1.1-0.3-3.2-0.4-6.1-0.4h-12.7V418.9z"/>
	<path fill="#FFFFFF" d="M414.3,395.3h6v39.3l26.4-39.3h6.6V445h-6v-39.2L420.8,445h-6.6V395.3z"/>
	<path fill="#FFFFFF" d="M464.1,395.3h6.6v21.7c3,0,5.1-0.6,6.3-1.7c1.2-1.2,2.8-4,4.7-8.4c1.4-3.3,2.5-5.6,3.4-6.9
		c0.9-1.3,2.2-2.5,3.8-3.4c1.6-0.9,3.5-1.4,5.5-1.4c2.5,0,3.9,0,4,0.1v5.7c-0.2,0-0.7,0-1.3,0c-0.7,0-1.2,0-1.3,0
		c-2.1,0-3.7,0.5-4.7,1.5c-1,1-2.2,3.2-3.6,6.5c-1.7,4.2-3.1,6.8-4.2,7.9c-1.2,1.1-2.5,2-4.1,2.6c3.2,0.9,6.4,3.8,9.5,8.9l10.2,16.5
		h-8.2l-8.3-13.5c-2.3-3.7-4.2-6.3-5.7-7.7c-1.5-1.4-3.5-2.1-6-2.1V445h-6.6V395.3z"/>
	<path fill="#FFFFFF" d="M499,445l19.1-49.7h7.1l20.3,49.7H538l-5.8-15h-20.8l-5.5,15H499z M513.3,424.6h16.8l-5.2-13.8
		c-1.6-4.2-2.8-7.6-3.5-10.3c-0.6,3.2-1.5,6.3-2.7,9.5L513.3,424.6z"/>
</g>
<g enable-background="new    ">
	<path fill="#29C0D4" d="M259.5,514.1l6.3-1.6c0.5,2.4,1.7,4.8,3.8,7.3c2.1,2.4,4.8,3.6,8.2,3.6c3.5,0,6.2-0.9,8.2-2.7
		c2-1.8,3-3.9,3-6.5c0-2.7-1.1-4.9-3.2-6.5c-2.1-1.6-5-2.4-8.7-2.4H274v-5.7c3,0,5.3-0.2,6.9-0.5c1.6-0.3,3-1.2,4.3-2.7
		c1.2-1.4,1.8-3.1,1.8-4.9c0-2.2-0.8-4.1-2.5-5.7c-1.7-1.6-4-2.4-6.8-2.4c-2.5,0-4.6,0.6-6.4,1.9c-1.8,1.3-3,2.9-3.7,5
		c-0.7,2.1-1,3.6-1,4.6l-6.3-1.4c1.6-10.5,7.4-15.8,17.5-15.8c4.9,0,8.7,1.3,11.6,4c2.8,2.7,4.3,5.9,4.3,9.5c0,4.6-2.2,8.2-6.6,10.8
		c2.5,0.7,4.6,2.1,6.4,4.3c1.7,2.2,2.6,4.7,2.6,7.7c0,4.3-1.7,7.8-5,10.7c-3.3,2.9-7.7,4.3-13.2,4.3
		C268.4,529,262.3,524,259.5,514.1z"/>
</g>
<g enable-background="new    ">
	<path fill="#FFFFFF" d="M304,528.1v-49.7h6.6v20.4h25.8v-20.4h6.6v49.7h-6.6v-23.4h-25.8v23.4H304z"/>
	<path fill="#FFFFFF" d="M348.4,528.1l19.1-49.7h7.1l20.3,49.7h-7.5l-5.8-15h-20.8l-5.5,15H348.4z M362.8,507.7h16.8l-5.2-13.8
		c-1.6-4.2-2.8-7.6-3.5-10.3c-0.6,3.2-1.5,6.3-2.7,9.5L362.8,507.7z"/>
	<path fill="#FFFFFF" d="M400.4,528.1v-49.7h6.6v20.4h25.8v-20.4h6.6v49.7h-6.6v-23.4h-25.8v23.4H400.4z"/>
	<path fill="#FFFFFF" d="M450.4,478.4h6v39.3l26.4-39.3h6.6v49.7h-6v-39.2l-26.5,39.2h-6.6V478.4z"/>
	<path fill="#FFFFFF" d="M500.2,478.4h6v39.3l26.4-39.3h6.6v49.7h-6v-39.2l-26.5,39.2h-6.6V478.4z M524.9,466.6h4.2
		c-0.3,2.8-1.4,5-3.1,6.5c-1.7,1.5-4,2.3-6.9,2.3c-2.9,0-5.2-0.8-6.9-2.3c-1.7-1.5-2.8-3.7-3.1-6.5h4.2c0.3,1.5,0.9,2.7,1.9,3.4
		c0.9,0.8,2.2,1.1,3.8,1.1c1.8,0,3.2-0.4,4.1-1.1C524,469.4,524.6,468.2,524.9,466.6z"/>
</g>
<path fill="#29C0D4" d="M280.3,216c-18.3,18.3-100.6,77.8-100.6,77.8c-47.7,35-62.3,49.3-62.3,49.3c-11.8,25.3-30.6,28.5-30.6,28.5
	c-23.6,24.9-37.5,44.8-37.5,44.8h1.6c73.3-23.2,135.3-69.7,135.3-69.7c54.2-39.1,100.2-94.1,100.2-94.1L280.3,216z"/>
<path fill="#FFFFFF" d="M59.1,422.2c167.9-58.7,251.8-187,251.8-187c15.9,64.4,20.8,127.5,20.8,127.5
	c-9.4-64.8-24.9-102.3-24.9-102.3c-53,84.7-175.6,169.1-175.6,169.1c-35.9,28.1-0.8,92.1-0.8,92.1c21.6,46.4,71.3,107.2,71.3,107.2
	C98.2,531.4,59.1,422.2,59.1,422.2z"/>
<path fill="#FFFFFF" d="M35.9,435.2c13.9,10.2,42.8,62.3,42.8,62.3c51.3,82.3,112.9,133.6,112.9,133.6
	C90.5,535,50.9,424.6,50.9,424.6c-13.9,0.4-21.2-3.7-21.2-3.7C35.9,435.2,35.9,435.2,35.9,435.2"/>
<path fill="#29C0D4" d="M80.3,372.5c-28.1,30.6-35,43.2-35,43.2l-3.3-0.4c6.9-15.1,27.3-44,27.3-44
	C74.6,372.9,80.3,372.5,80.3,372.5z"/>
<path fill="#29C0D4" d="M65.2,370.4c-18.7,25.7-27.7,44.4-27.7,44.4l0,0h-0.8c15.1-29.7,25.7-46.4,25.7-46.4L65.2,370.4z"/>
<path fill="#FFFFFF" d="M55.8,364.7h0.8l2,2v0.4c-11,16.7-25.3,45.2-25.3,45.2H33V412C39.1,395.3,55.8,364.7,55.8,364.7z"/>
<path fill="#FFFFFF" d="M80.3,282c35,6.1,26.9,42,26.9,42c-6.5,31.8-31.8,33-31.8,33c-18.7,0.4-26.1-16.3-26.1-16.3
	c-13.4-33.4,14.3-53,14.3-53C71.7,281.2,80.3,282,80.3,282z"/>
<path fill="#FFFFFF" d="M115.7,296.3c-1.6-2.9-5.7-7.7-5.7-7.7c1.2-2.9,32.2-35.4,32.2-35.4c12.2-11.8,23.6-22.8,30.6-28.9l6.9,11.8
	c-4.5,4.9-27.7,26.5-29.7,28.1C148.3,265.7,115.7,296.3,115.7,296.3z"/>
<path fill="#29C0D4" d="M117.8,300.3c0.8,1.6,3.3,9.4,3.3,9.4c7.7-8.1,56.6-47.7,57.9-48.5c1.2-1.2,39.5-32.6,39.5-32.6l-3.3-23.6
	h-0.4c-2,4.1-26.1,28.5-26.1,28.5c-17.5,17.5-31.8,30.2-31.8,30.2C145.5,273.4,117.8,300.3,117.8,300.3z"/>
<path fill="#29C0D4" d="M121.4,314.6c1.2,6.9-1.6,20.4-1.6,20.4c17.1-15.1,75-57.9,75-57.9c57-42,58.7-44,58.7-44l-2.9-29.7
	c-40.3,38.7-70.9,61.1-70.9,61.1C120.2,314.2,121.4,314.6,121.4,314.6z"/>
</svg>
