<?xml version="1.0" encoding="utf-8"?>
<!-- Generator: Adobe Illustrator 16.0.1, SVG Export Plug-In . SVG Version: 6.00 Build 0)  -->
<!DOCTYPE svg PUBLIC "-//W3C//DTD SVG 1.1//EN" "http://www.w3.org/Graphics/SVG/1.1/DTD/svg11.dtd">
<svg version="1.1" id="Capa_1" xmlns="http://www.w3.org/2000/svg" xmlns:xlink="http://www.w3.org/1999/xlink" x="0px" y="0px"
	 width="70.865px" height="56.689px" viewBox="0 0 70.865 56.689" enable-background="new 0 0 70.865 56.689" xml:space="preserve">
<path fill="#334458" d="M57.482,6.816H14.249c-3.71,0-6.729,2.898-6.729,6.461v30.134c0,3.563,3.018,6.461,6.729,6.461h43.233
	c3.709,0,6.728-2.898,6.728-6.461V13.277C64.21,9.715,61.191,6.816,57.482,6.816z M57.482,44.169H14.249
	c-0.545,0-1.024-0.354-1.024-0.758V17.262l19.553,16.508c0.401,0.338,0.911,0.523,1.436,0.523h3.302
	c0.525,0,1.035-0.186,1.436-0.523l19.555-16.509v26.15C58.506,43.816,58.027,44.169,57.482,44.169z M35.865,28.631L16.848,12.52
	h38.035L35.865,28.631z"/>
</svg>
