<?xml version="1.0" encoding="utf-8"?>
<!-- Generator: Adobe Illustrator 16.0.1, SVG Export Plug-In . SVG Version: 6.00 Build 0)  -->
<!DOCTYPE svg PUBLIC "-//W3C//DTD SVG 1.1//EN" "http://www.w3.org/Graphics/SVG/1.1/DTD/svg11.dtd">
<svg version="1.1" id="Capa_1" xmlns="http://www.w3.org/2000/svg" xmlns:xlink="http://www.w3.org/1999/xlink" x="0px" y="0px"
	 width="56.689px" height="56.689px" viewBox="0 0 56.689 56.689" enable-background="new 0 0 56.689 56.689" xml:space="preserve">
<path fill="#334458" d="M31.399,31.243c-0.908-0.529-2.172-0.529-3.198-0.529h-3.37v6.944h3.093c1.145,0,2.605,0.082,3.593-0.611
	c0.906-0.609,1.419-1.808,1.419-2.947C32.937,33.04,32.307,31.773,31.399,31.243z M30.129,25.313
	c0.75-0.571,1.144-1.589,1.144-2.527c0-1.019-0.474-1.996-1.341-2.525c-0.907-0.529-2.566-0.406-3.632-0.406h-1.468v6.111h1.942
	C27.879,25.964,29.183,26.046,30.129,25.313z M46.725,0H9.963C4.461,0,0,4.461,0,9.965v36.76c0,5.503,4.461,9.965,9.963,9.965
	h36.761c5.503,0,9.965-4.462,9.965-9.965V9.965C56.689,4.461,52.228,0,46.725,0z M29.882,42.833H18.301V14.882h12.654
	c3.665,0,7.047,2.333,7.047,6.448c0,3.178-1.774,5.354-4.036,6.029v0.082c3.355,0.693,5.751,2.516,5.751,6.912
	C39.717,38.423,36.946,42.833,29.882,42.833z"/>
</svg>
